<svg width="800" height="800" viewBox="0 0 800 800" fill="none" xmlns="http://www.w3.org/2000/svg">
<rect width="800" height="800" fill="#FF3621"/>
<g clip-path="url(#clip0_3346_12)">
<path d="M644 512.421V423.093L634.344 417.057L402.604 543.807L182.933 423.093V371.186L402.604 490.693L645.207 359.114V270.993L635.551 264.957L402.604 392.914L191.382 277.029L402.604 161.143L572.788 254.093L586.065 246.85V237.193L402.604 137L160 268.579V281.857L402.604 414.643L622.274 293.929V347.043L402.604 467.757L169.656 339.8L160 345.836V435.164L402.604 566.743L622.274 447.236V499.143L402.604 619.857L169.656 493.107L160 499.143V512.421L402.604 644L644 512.421Z" fill="white"/>
</g>
<defs>
<clipPath id="clip0_3346_12">
<rect width="484" height="507" fill="white" transform="translate(160 137)"/>
</clipPath>
</defs>
</svg>
