<svg width="800" height="800" viewBox="0 0 800 800" fill="none" xmlns="http://www.w3.org/2000/svg">
<g clip-path="url(#clip0_3345_2)">
<path d="M401.964 81.0581L133.386 236.211V546.804L401.988 701.934L670.613 546.782V236.211L401.964 81.0581ZM308.563 526.717L236.918 568.098L165.28 526.726L165.282 443.883L236.909 402.509L308.559 443.883L308.563 526.717ZM308.563 335.826L236.918 377.207L165.28 335.826L165.282 252.984L236.909 211.617L308.559 252.984L308.563 335.826ZM473.638 622.063L402 663.435L330.356 622.063V539.226L401.994 497.845L473.638 539.226V622.063ZM473.638 431.581L402 472.962L330.356 431.588L330.358 348.746L401.997 307.372L473.641 348.746L473.638 431.581ZM473.638 240.481L402 281.855L330.356 240.481L330.358 157.64L401.997 116.266L473.641 157.64L473.638 240.481ZM638.725 526.712L567.082 568.093L495.443 526.717V443.883L567.07 402.502L638.72 443.883L638.725 526.712ZM638.725 335.82L567.082 377.194L495.443 335.827V252.985L567.07 211.604L638.72 252.985L638.725 335.82Z" fill="#FF3F32"/>
</g>
<defs>
<clipPath id="clip0_3345_2">
<rect width="538" height="621" fill="white" transform="translate(133 81)"/>
</clipPath>
</defs>
</svg>
