<svg role="img" viewBox="0 0 24 24" xmlns="http://www.w3.org/2000/svg"><title>Java</title><path fill="#007396" d="M8.851 18.56s-.917.534.653.714c1.902.218 2.874.187 4.969-.211 0 0 .552.346 1.321.646-4.699 2.013-10.633-.118-6.943-1.149zm-.546-2.53s-1.026.761.543.929c2.033.208 3.64.225 6.413-.302 0 0 .385.389.987.602-5.669 1.661-12.007.13-7.943-1.229zm1.816 6.59c1.135.372 3.764.202 3.985-.33-.166.058-2.229-1.584-2.229-1.584-3.655 1.175-6.492 1.105-8.338.34 0 0 2.078 2.103 5.582 2.574zM12.002 2.541s2.312 2.314-2.196 5.859c-3.953 3.124-.899 4.914 0 6.966-2.304-2.079-3.988-3.908-2.846-6.608 1.289-3.051 5.053-4.442 5.042-6.217zm6.865 13.838s.687.564-.756.998c-2.746.835-11.41 1.087-13.818.034-.866-.377.76-.894 1.278-.999.534-.108.838-.088.838-.088-.956-.673-6.171 1.316-2.648 1.887 9.583 1.553 17.468-.702 14.106-1.832zm-9.131 2.894c2.752-.953 4.635-1.386 9.469-.737.597.086 1.025.16 1.025.16s-2.286-1.373-4.138-1.953c-4.643-1.421-6.305.845-7.837 1.88 0 0 1.782.227 1.481.65zm6.588-5.636s-3.978-.966-6.31 1.063c-2.628 2.284-1.007 3.917-.042 5.165-.84.791-2.366 1.746-2.366 3.172 0 2.053 4.332 3.692 9.695 3.692 5.362 0 9.695-1.639 9.695-3.692 0-1.426-1.526-2.381-2.366-3.172.965-1.248 2.586-2.881-.042-5.165-2.332-2.029-6.31-1.063-6.31-1.063v-.9h.046zm-4.893 9.473c-4.83 0-8.743-2.02-8.743-4.512 0-2.491 3.913-4.511 8.743-4.511s8.743 2.02 8.743 4.511c0 2.492-3.913 4.512-8.743 4.512z"/></svg>